<svg height="29.644529pt" viewBox="0 0 140.99609 29.644529" width="140.99609pt" xmlns="http://www.w3.org/2000/svg"><g fill="#231f20"><path d="m47.72656 9.36328h-4.74219v1.90234h4.74219zm0-2.80469h-4.74219v1.86328h4.74219zm-10.46094 4.70703h4.46875v-1.90234h-4.46875zm0-2.84375h4.46875v-1.86328h-4.46875zm11.69141 3.82031h-4.90625c1.68359 1.77344 4.39843 3.4375 6.78515 4.23438-.28906.25391-.64843.72266-.84765 1.04687-2.44532-.95703-5.21094-2.82031-7.00391-4.86718v5.14062h-1.25v-5.0664c-1.76953 1.99218-4.48437 3.80078-6.85547 4.75781-.19922-.3086-.5625-.77735-.85156-1.01172 2.33594-.83203 4.97656-2.46094 6.66016-4.23438h-4.61719v-6.67578h5.66406v-1.64843h-7.27344v-1.16016h7.27344v-1.75391l1.61328.0899c-.0195.1289-.10937.21875-.36328.2539v1.41016h7.47266v1.16016h-7.47266v1.64843h5.97266zm0 0"/><path d="m67.42968 17.19922c-.6875-1.05079-2.1914-2.80469-3.4375-4.05469l1.08594-.52344c1.22656 1.19531 2.78516 2.875 3.52734 3.94531zm-11.40234-6.82032h9.06641v-3.1875h-9.06641zm10.33203 1.08594h-5.26562v4.86719c0 1.44531-.63282 1.46484-4.05079 1.46484-.0742-.34375-.2539-.8164-.43359-1.16015.77734.0195 1.48438.0391 2.02344.0391 1.10547 0 1.19531 0 1.19531-.36328v-4.84766h-5.01172v-5.35937h11.54297zm2.20703-8.28906v1.17578h-16.08594v-1.17578h7.34766v-2.20703l1.62891.0898c-.0195.14453-.10938.23438-.36328.25391v1.86328zm-11.43359 9.89844c-.0742.14453-.23438.17968-.39844.16015-.74219 1.21485-2.1875 2.84375-3.52734 3.875-.23438-.23437-.70703-.57812-.97657-.72265 1.35547-.98047 2.73047-2.5 3.40235-3.80079zm0 0"/><path d="m79.20703 15.13672h7.54687v1.23046h-16.30469v-1.23046h7.47266v-10.83985h-6.58594v-1.21094h14.58203v1.21094h-6.71093zm0 0"/><path d="m98.51171 7.32031c.32422-.52734.74219-1.32031 1.01172-1.95313h-5.625c.41407.59375.8125 1.39063.9961 1.9336l-.5625.1289h4.46875zm6.20704 6.0625h-6.28125c1.68359 1.39062 4.32812 2.55078 6.71484 3.07422-.26953.2539-.63281.74219-.81641 1.07031-2.51172-.70703-5.30078-2.15625-7.07422-3.875v4.14453h-1.21093v-4.05469c-1.77344 1.64844-4.5586 3.02344-7.01953 3.72657-.16407-.30469-.52735-.77735-.79688-1.02735 2.35156-.54297 4.95703-1.70312 6.64063-3.05859h-6.17188v-1.05078h7.34766v-1.46485h-5.60938v-.98046h5.60938v-1.44532h-6.53125v-1.01172h4.125c-.1836-.5625-.5625-1.33984-.94141-1.91796l.70703-.14454h-4.63281v-1.07031h3.03906c-.26953-.75781-.92187-1.89844-1.51953-2.75l1.03125-.36328c.65234.83203 1.33984 1.99219 1.60938 2.75l-.95704.36328h2.3711v-3.32812l1.53515.0898c-.0156.17969-.16015.27344-.39843.30859v2.92969h2.35547v-3.32812l1.57421.0898c-.0195.17969-.18359.27344-.41796.30859v2.92969h2.28125c-.23829-.0898-.50782-.19922-.67188-.2539.52734-.77735 1.16016-1.98829 1.48438-2.82032l1.42968.48828c-.0352.10938-.17968.16407-.3789.16407-.37891.70312-.96094 1.69922-1.46485 2.42187h2.96485v1.07031h-4.08985l.52735.16016c-.0547.12891-.19922.18359-.38282.16406-.25.48828-.64843 1.19532-1.01171 1.73828h4.28906v1.01172h-6.71485v1.44532h5.82813v.98046h-5.82813v1.46485h7.45704zm0 0"/><path d="m122.86718 7.55468h-7.07812c1.17578 4.32422 3.51172 7.65235 7.36719 9.08204-.3086.27343-.70704.78125-.90625 1.14062-3.78125-1.55469-6.07813-4.75781-7.41797-9.11719-.83203 3.58203-2.80469 7.12891-7.47266 9.13672-.17969-.32422-.5625-.76172-.86719-1.03125 4.77344-1.9375 6.56641-5.55469 7.25391-9.21094h-6.98438v-1.25h7.1836c.23437-1.88281.21484-3.72656.23437-5.30078l1.70313.0899c-.0195.16406-.16406.2539-.39844.30859-.0195 1.42969-.0391 3.12891-.25391 4.90234h7.63672zm0 0"/><path d="m126.42968 5.16797v2.91015h-1.16015v-4.01562h2.82422c-.34375-.70703-1.01563-1.66407-1.60938-2.3711l1.01172-.48828c.72266.79688 1.50391 1.86328 1.82812 2.58985l-.52343.26953h3.83203c-.26953-.8125-.86719-1.9375-1.42578-2.76953l1.04687-.39844c.65235.90625 1.30469 2.11719 1.53906 2.89844l-.63281.26953h3.16406c.70704-.83203 1.59375-2.09766 2.08204-2.96875 1.14062.41797 1.28515.50781 1.42968.59765-.0547.10938-.19922.16407-.3789.14453-.45313.65235-1.10547 1.50391-1.73828 2.22657h2.94921v4.01562h-1.19531v-2.91015zm14.56641 6.49609v1.13672h-7.51172v3.51172c0 1.51953-.86719 1.53906-4.21484 1.53906-.0898-.34375-.32422-.85156-.52344-1.19531.92187.0351 1.73437.0547 2.31641.0547 1.04687 0 1.17578 0 1.17578-.39843v-3.51172h-7.42188v-1.13672h7.42188v-1.57422l.84765.0508c.92188-.46875 1.88282-1.10156 2.625-1.71875h-7.87109v-1.08594h9.15625l.21484-.0703.94141.59766c-.0547.0898-.16016.14453-.26953.16015-1.06641 1.01563-2.78906 2.19141-4.39844 2.98829v.65234zm0 0"/><path d="m38.71093 22.0039h-1.83203v5.6211h-.67578v-5.6211h-1.82031v-.57031h4.32812zm0 0"/><path d="m40.59765 23.61718c-.96094 0-1.35937.94141-1.35937 1.79688 0 .98437.54297 1.78125 1.34375 1.78125.80468 0 1.36718-.79688 1.36718-1.79688 0-.79296-.38671-1.78125-1.35156-1.78125m2.03906 1.75391c0 1.65234-1.08984 2.35156-2.07421 2.35156-1.13672 0-2.01563-.85156-2.01563-2.28515 0-1.51172.94531-2.35157 2.07422-2.35157 1.21094 0 2.01562.92969 2.01562 2.28516"/><path d="m47.10156 27.625h-.82813l-1.53125-2.1875-.40625.46484v1.72266h-.67578v-6.50782h.67578v4.14063h.0156c.10547-.15234.26172-.34766.38281-.49609l1.32813-1.57032h.8125l-1.66797 1.83203zm0 0"/><path d="m51.20703 23.1914-1.17969 3.14063c-.52734 1.4414-.90234 2.26953-1.45313 2.79297-.375.33984-.74218.47656-.90234.51953l-.1875-.57031c1.03125-.38282 1.42969-1.50391 1.42969-1.59375 0-.043-.0156-.10547-.0469-.1875l-1.57031-4.10157h.73828l.96875 2.69532c.11328.30859.21094.65625.28516.92578h.0234c.0742-.26953.17968-.60157.28515-.94532l.89453-2.67578zm0 0"/><path d="m53.67968 23.61718c-.96093 0-1.35937.94141-1.35937 1.79688 0 .98437.54687 1.78125 1.34375 1.78125.80469 0 1.36719-.79688 1.36719-1.79688 0-.79296-.38282-1.78125-1.35157-1.78125m2.04297 1.75391c0 1.65234-1.08984 2.35156-2.07422 2.35156-1.14062 0-2.01953-.85156-2.01953-2.28515 0-1.51172.94531-2.35157 2.07422-2.35157 1.21484 0 2.01953.92969 2.01953 2.28516"/><path d="m58.66406 21.42578h.67578v6.19922h-.67578zm0 0"/><path d="m64.08984 27.625h-.67578v-2.61719c0-.72656-.26172-1.35938-1.03125-1.35938-.57813 0-1.16406.48829-1.16406 1.26172v2.71485h-.67579v-3.29297c0-.45703-.0156-.78906-.0312-1.14844h.60157l.0391.72656h.0156c.22266-.43359.73438-.82422 1.42579-.82422.55078 0 1.49609.33594 1.49609 1.83985zm0 0"/><path d="m67.30859 23.86718c-.16406-.10546-.46484-.25781-.85938-.25781-.48828 0-.75.30078-.75.65625 0 .38281.25.5625.82032.80469.71484.29297 1.13281.66797 1.13281 1.33594 0 .78906-.60156 1.30859-1.57031 1.30859-.44141 0-.86328-.12109-1.16407-.30078l.1875-.51953c.23438.13672.61719.30078 1 .30078.59375 0 .88672-.31641.88672-.71484 0-.41407-.23437-.64454-.82031-.87891-.75-.30078-1.13281-.71875-1.13281-1.25391 0-.6914.55469-1.26172 1.44922-1.26172.42187 0 .78125.1211 1.01562.26954zm0 0"/><path d="m68.86328 22.38672.66406-.22657v1.03125h1.14844v.53125h-1.14844v2.5625c0 .5586.17187.8711.60156.8711.20703 0 .34375-.0274.45703-.0664l.0391.51953c-.14454.0664-.3711.10547-.65625.10547-1.07422 0-1.10547-.97656-1.10547-1.44531v-2.54688h-.6836v-.53125h.6836zm0 0"/><path d="m72.23828 27.625h-.67578v-4.4336h.67578zm-.34375-5.21485c-.26172 0-.4375-.20312-.4375-.46093 0-.25391.1875-.45704.44531-.45704.26953 0 .44141.20313.44141.45704 0 .28125-.1875.46093-.44922.46093"/><path d="m73.75781 22.38672.66797-.22657v1.03125h1.14453v.53125h-1.14453v2.5625c0 .5586.16797.8711.60156.8711.20312 0 .33984-.0274.45312-.0664l.043.51953c-.14843.0664-.375.10547-.66015.10547-1.07422 0-1.10547-.97656-1.10547-1.44531v-2.54688h-.6836v-.53125h.6836zm0 0"/><path d="m79.76953 26.44531c0 .45703.0234.83984.0391 1.17969h-.60938l-.0312-.69922h-.0273c-.20312.35156-.65625.79687-1.41406.79687-.66797 0-1.45703-.38281-1.45703-1.91015v-2.6211h.67578v2.5c0 .85938.2539 1.46485.99219 1.46485.52734 0 1.15625-.42578 1.15625-1.20703v-2.75782h.67578zm0 0"/><path d="m81.11718 22.38672.66797-.22657v1.03125h1.14453v.53125h-1.14453v2.5625c0 .5586.16797.8711.60156.8711.20313 0 .33985-.0274.45313-.0664l.043.51953c-.14844.0664-.375.10547-.66016.10547-1.07422 0-1.10547-.97656-1.10547-1.44531v-2.54688h-.68359v-.53125h.68359zm0 0"/><path d="m86.36328 24.98047c.008-.60157-.2461-1.38282-1.11719-1.38282-.8125 0-1.16797.77344-1.23438 1.38282zm.42968 2.45703c-.25.125-.71484.27734-1.39062.27734-1.29297 0-2.06641-.91016-2.06641-2.23828 0-1.39063.78125-2.39063 1.97657-2.39063 1.36718 0 1.71875 1.25391 1.71875 2.02735 0 .15234-.0117.26953-.0195.37109h-3.01562c.008 1.23047.70703 1.69531 1.50391 1.69531.55468 0 .88671-.11328 1.16406-.23046zm0 0"/><path d="m91.65625 23.61718c-.96094 0-1.35938.94141-1.35938 1.79688 0 .98437.54688 1.78125 1.34375 1.78125.80469 0 1.36719-.79688 1.36719-1.79688 0-.79296-.38281-1.78125-1.35156-1.78125m2.04296 1.75391c0 1.65234-1.08984 2.35156-2.07421 2.35156-1.14063 0-2.01954-.85156-2.01954-2.28515 0-1.51172.94532-2.35157 2.07422-2.35157 1.21094 0 2.01953.92969 2.01953 2.28516"/><path d="m94.79296 23.1914c0-.55078 0-1.27734.48829-1.77343.29296-.28516.67578-.39844 1.02734-.39844.28516 0 .51172.0664.65625.13281l-.11328.52734c-.1211-.0508-.27735-.10546-.51172-.10546-.69922 0-.87109.64843-.87109 1.36718v.25h1.07421v.53125h-1.07421v3.90235h-.67579v-3.90235h-.60937v-.53125zm0 0"/><path d="m102.78906 22.0039h-1.83203v5.6211h-.67578v-5.6211h-1.82032v-.57031h4.32813zm0 0"/><path d="m105.49609 24.98047c.008-.60157-.24219-1.38282-1.11328-1.38282-.8125 0-1.17188.77344-1.23828 1.38282zm.42969 2.45703c-.25.125-.71485.27734-1.39063.27734-1.29297 0-2.0664-.91016-2.0664-2.23828 0-1.39063.78125-2.39063 1.98046-2.39063 1.36329 0 1.71485 1.25391 1.71485 2.02735 0 .15234-.008.26953-.0156.37109h-3.01953c.008 1.23047.70703 1.69531 1.50391 1.69531.55469 0 .88672-.11328 1.16406-.23046zm0 0"/><path d="m110.32812 27.46484c-.19531.0977-.63672.25-1.20703.25-1.26563 0-2.10547-.90234-2.10547-2.26172 0-1.36719.90234-2.36719 2.26953-2.36719.4961 0 .89453.14844 1.06641.23829l-.17188.54296c-.1875-.10546-.48047-.22656-.91015-.22656-1.02735 0-1.5625.82031-1.5625 1.77344 0 1.07422.64453 1.75 1.53906 1.75.4375 0 .73828-.125.95703-.22266zm0 0"/><path d="m114.98046 27.625h-.67578v-2.61719c0-.72656-.26172-1.35156-1.02734-1.35156-.51953 0-1.16797.42968-1.16797 1.24609v2.72266h-.67969v-6.50782h.67969v2.75782h.0156c.28906-.48828.82812-.78907 1.375-.78907.54296 0 1.48046.33594 1.48046 1.83985zm0 0"/><path d="m119.83203 27.625h-.67188v-2.61719c0-.72656-.26172-1.35938-1.03515-1.35938-.57813 0-1.16407.48829-1.16407 1.26172v2.71485h-.67578v-3.29297c0-.45703-.0156-.78906-.0312-1.14844h.60156l.043.72656h.0156c.21875-.43359.73047-.82422 1.42187-.82422.55469 0 1.4961.33594 1.4961 1.83985zm0 0"/><path d="m122.86718 23.61718c-.96093 0-1.35937.94141-1.35937 1.79688 0 .98437.54297 1.78125 1.33984 1.78125.8086 0 1.36719-.79688 1.36719-1.79688 0-.79296-.38281-1.78125-1.34766-1.78125m2.04297 1.75391c0 1.65234-1.09375 2.35156-2.07812 2.35156-1.13672 0-2.01563-.85156-2.01563-2.28515 0-1.51172.94141-2.35157 2.07422-2.35157 1.21094 0 2.01953.92969 2.01953 2.28516"/><path d="m126.4414 27.625h-.67187v-6.50782h.67187zm0 0"/><path d="m129.50781 23.61718c-.95703 0-1.35938.94141-1.35938 1.79688 0 .98437.54688 1.78125 1.34375 1.78125.8086 0 1.36719-.79688 1.36719-1.79688 0-.79296-.38281-1.78125-1.35156-1.78125m2.04297 1.75391c0 1.65234-1.08985 2.35156-2.07422 2.35156-1.13672 0-2.01953-.85156-2.01953-2.28515 0-1.51172.94531-2.35157 2.07812-2.35157 1.21094 0 2.01563.92969 2.01563 2.28516"/><path d="m135.45312 24.89062c0-.76953-.55859-1.25781-1.17969-1.25781-.78125 0-1.32422.69141-1.32422 1.76562 0 .94141.45313 1.6836 1.31641 1.6836.50391 0 1.1875-.38281 1.1875-1.30078zm.72656-1.70703c-.0273.31641-.043.67578-.043 1.22266v2.58593c0 .77344-.0156 2.54688-2.11328 2.54688-.50781 0-1.05859-.125-1.39062-.35156l.17578-.52735c.28516.17188.71875.33203 1.24609.33203.8125 0 1.40625-.42968 1.40625-1.60156v-.52734h-.0156c-.22656.41406-.69922.7539-1.375.7539-1.0586 0-1.8125-.93359-1.8125-2.17968 0-1.53516.96094-2.35157 1.91797-2.35157.75781 0 1.15625.40625 1.34375.76563h.0156l.0312-.66797zm0 0"/><path d="m140.8125 23.1914-1.17969 3.14063c-.52735 1.4414-.90235 2.26953-1.45703 2.79297-.375.33984-.73828.47656-.90235.51953l-.1875-.57031c1.03516-.38282 1.4336-1.50391 1.4336-1.59375 0-.043-.0156-.10547-.0508-.1875l-1.57032-4.10157h.74219l.96484 2.69532c.11719.30859.21485.65625.28516.92578h.0273c.0742-.26953.17969-.60157.28516-.94532l.89453-2.67578zm0 0"/><path d="m21.08984 19.0625c.0547.14843.0547.19922.0195.21875-.0312.0156-.0859.0117-.16797-.11719-.004-.004-.008-.008-.008-.0156-.004 0-.004-.004-.008-.008-.53516-.88672-.95313-2.04687-1.03516-2.42187-.10156-.46485-.28906-1.0586-.29297-2.71094-.004-1.98047-.54297-2.21875-2.09765-2.34766-1.9375-.15625-2.12891 1.01953-2.20313 1.37891-.23047 1.16016-.38281 2.17969-.17187 2.45703.28906.38281.375.625.67187 1.22266.52344 1.04297 1.30859 4.02734 1.72656 5.69531.043.16797.0547.22266.0234.24219-.0312.0195-.0937.0195-.17578-.16797-.56641-1.35938-1.52344-3.57813-1.85547-4.32031-.47656-1.0586-1.02734-1.30469-1.21875-1.30469-.19531 0-.74609.24609-1.22266 1.30469-.33203.74218-1.28515 2.96093-1.85546 4.32031-.0781.1875-.14063.1875-.17579.16797-.0312-.0195-.0195-.0742.0234-.24219.41797-1.66797 1.20703-4.65234 1.72656-5.69531.30079-.59766.38672-.83985.67579-1.22266.21093-.27734.0547-1.29687-.17579-2.45703-.0703-.35938-.26562-1.53516-2.20312-1.37891-1.55469.12891-2.09375.36719-2.09766 2.34766-.004 1.65234-.1875 2.24609-.29297 2.71094-.082.375-.49609 1.53515-1.03515 2.42187 0 .004-.004.008-.004.008-.004.008-.008.0117-.008.0156-.082.12891-.14063.13281-.17188.11719-.0312-.0195-.0312-.0703.0195-.21875.21484-.60157.53906-1.78907.53906-2.96875 0-.88672-.0937-3.92578.0117-4.51563.10156-.59375-.0664-1.46094 1.59765-1.94531 0 0 1-.29297 2.02735-.46094.42578-.10547 1.0625-.11719 1.28125-.57812.32031-.66797.41406-1.8086.94531-2.45313.0508-.0586.13672-.15234.19922-.28515.0781-.17969.17969-.21094.19531-.21094.0156 0 .11328.0312.19531.21094.0586.13281.14844.22656.19922.28515.53125.64453.6211 1.78516.94141 2.45313.22265.46093.85547.47265 1.28515.57812 1.02344.16797 2.02735.46094 2.02735.46094 1.66406.48437 1.49219 1.35156 1.59765 1.94531.10157.58985.008 3.62891.008 4.51563 0 1.17968.32422 2.36718.53906 2.96875zm6.66406 8.72656h-26.91406l2.73437-2.77344v-21.4414l-2.73437-2.77344h26.91406l-2.73828 2.77344v21.4414zm-27.7539.80078h28.58984v-28.58984h-28.58984zm0 0"/></g></svg>